<svg xmlns="http://www.w3.org/2000/svg" version="1.1" xmlns:xlink="http://www.w3.org/1999/xlink" xmlns:svgjs="http://svgjs.dev/svgjs" width="1000" height="1000" viewBox="0 0 1000 1000"><rect width="1000" height="1000" fill="#ffffff"></rect><g transform="matrix(0.7,0,0,0.7,149.57578331192354,384.9195437565866)"><svg viewBox="0 0 396 131" data-background-color="#051726" preserveAspectRatio="xMidYMid meet" height="330" width="1000" xmlns="http://www.w3.org/2000/svg" xmlns:xlink="http://www.w3.org/1999/xlink"><g id="tight-bounds" transform="matrix(1,0,0,1,0.239985440683256,-0.2379230827395986)"><svg viewBox="0 0 395.52 131.4758461654792" height="131.4758461654792" width="395.52"><g><svg viewBox="0 0 664.0219632190368 220.72929178470258" height="131.4758461654792" width="395.52"><g transform="matrix(1,0,0,1,268.50196321903684,0)"><svg viewBox="0 0 395.52 220.72929178470258" height="220.72929178470258" width="395.52"><g><svg viewBox="0 0 395.52 220.72929178470258" height="220.72929178470258" width="395.52"><g><svg viewBox="0 0 395.52 220.72929178470258" height="220.72929178470258" width="395.52"><g transform="matrix(1,0,0,1,0,0)"><svg width="395.52" viewBox="0.10000085830688477 -35 141.19998168945312 75.10000610351562" height="220.72929178470258" data-palette-color="#f7feeb"><svg></svg><svg></svg><g class="undefined-text-0" data-fill-palette-color="primary" id="text-0"><path xmlns="http://www.w3.org/2000/svg" d="M3.3 0v-35h18.55v5.1h-13v9h10.05v5.1h-10.05v15.8zM25.85 0v-35h5.55v35zM37.9 0v-35h9.75c3.667 0 6.543 0.973 8.63 2.92 2.08 1.953 3.12 4.813 3.12 8.58v0c0 3.767-1.05 6.633-3.15 8.6-2.1 1.967-4.967 2.95-8.6 2.95v0h-4.2v11.95zM43.45-16.85h3.7c2.133 0 3.75-0.543 4.85-1.63 1.1-1.08 1.65-2.753 1.65-5.02v0c0-2.2-0.55-3.85-1.65-4.95-1.1-1.1-2.717-1.65-4.85-1.65v0h-3.7zM63.65 0v-35h19.3v5.1h-13.75v9h10.7v5.1h-10.7v10.7h14.2v5.1z" fill="#000000" fill-rule="nonzero" stroke="none" stroke-width="1" stroke-linecap="butt" stroke-linejoin="miter" stroke-miterlimit="10" stroke-dasharray="" stroke-dashoffset="0" font-family="none" font-weight="none" font-size="none" text-anchor="none" style="mix-blend-mode: normal" data-fill-palette-color="primary" opacity="1"></path><path xmlns="http://www.w3.org/2000/svg" d="M21.1 39.4l-2.55-8.75h-10.25l-2.55 8.75h-5.65l10.65-35h5.3l10.7 35zM9.75 25.5h7.35l-3.65-12.65zM43.8 40.1c-3.2 0-6-0.76-8.4-2.28-2.4-1.513-4.25-3.647-5.55-6.4-1.3-2.747-1.95-5.92-1.95-9.52v0c0-3.667 0.693-6.877 2.08-9.63 1.38-2.747 3.28-4.863 5.7-6.35 2.413-1.48 5.153-2.22 8.22-2.22v0c2.967 0 5.65 0.533 8.05 1.6v0l-0.65 5.45c-1.167-0.533-2.267-0.933-3.3-1.2-1.033-0.267-2.183-0.4-3.45-0.4v0c-3.3 0-5.883 1.157-7.75 3.47-1.867 2.32-2.8 5.413-2.8 9.28v0c0 3.967 0.877 7.083 2.63 9.35 1.747 2.267 4.287 3.4 7.62 3.4v0c1.1 0 2.15-0.183 3.15-0.55v0-7.15h-4.15v-5.1h9.7v15.8c-1.1 0.767-2.457 1.367-4.07 1.8-1.62 0.433-3.313 0.65-5.08 0.65zM71.3 40.1c-2.867 0-5.423-0.75-7.67-2.25-2.253-1.5-4.013-3.627-5.28-6.38-1.267-2.747-1.9-5.937-1.9-9.57v0c0-3.633 0.633-6.827 1.9-9.58 1.267-2.747 3.027-4.87 5.28-6.37 2.247-1.5 4.803-2.25 7.67-2.25v0c2.867 0 5.427 0.75 7.68 2.25 2.247 1.5 4.003 3.623 5.27 6.37 1.267 2.753 1.9 5.947 1.9 9.58v0c0 3.633-0.633 6.823-1.9 9.57-1.267 2.753-3.023 4.88-5.27 6.38-2.253 1.5-4.813 2.25-7.68 2.25zM71.3 34.5c2.867 0 5.067-1.16 6.6-3.48 1.533-2.313 2.3-5.353 2.3-9.12v0c0-3.767-0.767-6.81-2.3-9.13-1.533-2.313-3.733-3.47-6.6-3.47v0c-2.867 0-5.073 1.167-6.62 3.5-1.553 2.333-2.33 5.367-2.33 9.1v0c0 3.733 0.777 6.767 2.33 9.1 1.547 2.333 3.753 3.5 6.62 3.5zM90.9 39.4v-35h9.8c3.667 0 6.527 0.89 8.58 2.67 2.047 1.787 3.07 4.48 3.07 8.08v0c0 2.133-0.44 4.007-1.32 5.62-0.887 1.62-2.147 2.897-3.78 3.83v0l6.8 14.8h-6.3l-5.9-13.25-0.95 0.05h-4.45v13.2zM96.45 21.3h3.75c2.133 0 3.733-0.483 4.8-1.45 1.067-0.967 1.6-2.483 1.6-4.55v0c0-2.067-0.533-3.583-1.6-4.55-1.067-0.967-2.667-1.45-4.8-1.45v0h-3.75zM135.65 39.4l-2.55-8.75h-10.25l-2.55 8.75h-5.65l10.65-35h5.3l10.7 35zM124.3 25.5h7.35l-3.65-12.65z" fill="#000000" fill-rule="nonzero" stroke="none" stroke-width="1" stroke-linecap="butt" stroke-linejoin="miter" stroke-miterlimit="10" stroke-dasharray="" stroke-dashoffset="0" font-family="none" font-weight="none" font-size="none" text-anchor="none" style="mix-blend-mode: normal" data-fill-palette-color="secondary" opacity="1"></path></g></svg></g></svg></g></svg></g></svg></g><g transform="matrix(1,0,0,1,0,63.373008638905645)"><svg viewBox="0 0 244.43136 93.98327450689129" height="93.98327450689129" width="244.43136"><g><svg version="1.0" xmlns="http://www.w3.org/2000/svg" xmlns:xlink="http://www.w3.org/1999/xlink" x="0" y="0" viewBox="0 0.00023700809106230736 100.00000762939453 38.449764251708984" enable-background="new 0 0 100 38.449" xml:space="preserve" width="244.43136" height="93.98327450689129" class="icon-icon-0" data-fill-palette-color="accent" id="icon-0"><path d="M99.929 15.958c-0.053-0.283-0.157-0.619-0.364-1.056L80.803 0.005h-37.75c-0.874-0.054-1.348 0.359-1.763 0.841L28.672 13.487 1.078 18.071C0.694 18.406 0.309 18.735 0 19.599l0.059 9.493c0.598 1.521 1.006 1.324 1.459 1.536h5.312c0-12.905 19.225-12.856 19.225 0h49.021c0-12.933 19.08-12.906 19.08 0h4.354c0.731-0.067 1.142-0.713 1.49-1.47L99.929 15.958zM59.408 15.346H33.254c-0.995-0.393-1.13-0.988-0.716-1.713l9.403-9.278c0.212-0.18 0.379-0.428 0.747-0.374h16.72V15.346zM86.488 15.348H62.516V3.983h14.066c0.368-0.055 0.535 0.193 0.747 0.374l8.058 8.115C86.13 13.591 87.623 15.122 86.488 15.348z" fill="#000000" data-fill-palette-color="accent"></path><path d="M16.396 22.843c-4.31 0-7.804 3.493-7.804 7.803s3.494 7.804 7.804 7.804 7.804-3.494 7.804-7.804S20.705 22.843 16.396 22.843zM16.396 33.921c-1.819 0-3.294-1.475-3.294-3.293 0-1.819 1.475-3.294 3.294-3.294 1.818 0 3.293 1.475 3.293 3.294C19.688 32.446 18.214 33.921 16.396 33.921z" fill="#000000" data-fill-palette-color="accent"></path><path d="M84.615 22.839c-4.31 0-7.804 3.494-7.804 7.804s3.494 7.804 7.804 7.804 7.803-3.494 7.803-7.804S88.925 22.839 84.615 22.839zM84.615 33.921c-1.819 0-3.294-1.475-3.294-3.293 0-1.819 1.475-3.294 3.294-3.294 1.818 0 3.293 1.475 3.293 3.294C87.908 32.446 86.434 33.921 84.615 33.921z" fill="#000000" data-fill-palette-color="accent"></path></svg></g></svg></g></svg></g><defs></defs></svg><rect width="395.52" height="131.4758461654792" fill="none" stroke="none" visibility="hidden"></rect></g></svg></g></svg>